<svg width="64" height="64" viewBox="30 29 51 52" fill="none" xmlns="http://www.w3.org/2000/svg">
  <path d="M61.1953 66.2266C61.5033 66.0226 61.9297 66.1535 62.0561 66.4909L66.8451 79.2701C66.9991 79.6811 66.611 80.0899 66.1686 79.9827L48.5366 75.7091C48.0624 75.5942 47.95 74.9986 48.3522 74.7323L61.1953 66.2266Z" fill="url(#paint0_linear_favicon)"/>
  <path d="M64.2883 63.4059C64.2662 63.3469 64.2549 63.2847 64.2549 63.222V50.3426C64.2549 49.9783 63.8886 49.7165 63.5234 49.8197L48.4148 54.0912C48.0496 54.1945 47.6834 53.9326 47.6834 53.5683V45.2448C47.6834 45.0746 47.7664 44.9142 47.9079 44.8111L67.5964 30.4574C67.8701 30.2579 68.2647 30.3341 68.436 30.6195L80.3297 50.4269C80.414 50.5672 80.4287 50.7361 80.37 50.8879L70.3564 76.7554C70.1717 77.2326 69.4649 77.229 69.2854 76.7499L64.2883 63.4059Z" fill="url(#paint1_linear_favicon)"/>
  <path d="M42.642 31.5738C42.7371 31.4847 42.8617 31.4302 42.9944 31.4199L61.1663 30.002C61.7339 29.9577 62.0109 30.6495 61.5577 30.9794L46.0688 42.2518C45.9255 42.3561 45.739 42.3894 45.5659 42.3417L35.3664 39.529C34.9469 39.4133 34.8136 38.9078 35.1255 38.6155L42.642 31.5738Z" fill="url(#paint2_linear_favicon)"/>
  <path d="M32.5273 42.3593C32.5708 42.0267 32.9146 41.81 33.2511 41.9031L44.0606 44.8931C44.3045 44.9605 44.4723 45.1741 44.4723 45.4169V57.5226C44.4723 57.887 44.8388 58.1489 45.2041 58.0454L60.2079 53.7929C60.5732 53.6893 60.9397 53.9512 60.9397 54.3156V62.005C60.9397 62.1836 60.8483 62.3508 60.6951 62.4527L43.8664 73.6432C43.6469 73.7891 43.3509 73.7695 43.1545 73.5961L30.1833 62.1394C30.0482 62.0201 29.9816 61.8457 30.0044 61.6712L32.5273 42.3593Z" fill="url(#paint3_linear_favicon)"/>
  <defs>
    <linearGradient id="paint0_linear_favicon" x1="69.9043" y1="39.375" x2="30.3306" y2="80.3195" gradientUnits="userSpaceOnUse">
      <stop offset="0.015625" stop-color="#3294FF"/>
      <stop offset="1" stop-color="#005BBE"/>
    </linearGradient>
    <linearGradient id="paint1_linear_favicon" x1="69.9043" y1="39.375" x2="30.3306" y2="80.3195" gradientUnits="userSpaceOnUse">
      <stop offset="0.015625" stop-color="#3294FF"/>
      <stop offset="1" stop-color="#005BBE"/>
    </linearGradient>
    <linearGradient id="paint2_linear_favicon" x1="69.9043" y1="39.375" x2="30.3306" y2="80.3195" gradientUnits="userSpaceOnUse">
      <stop offset="0.015625" stop-color="#3294FF"/>
      <stop offset="1" stop-color="#005BBE"/>
    </linearGradient>
    <linearGradient id="paint3_linear_favicon" x1="69.9043" y1="39.375" x2="30.3306" y2="80.3195" gradientUnits="userSpaceOnUse">
      <stop offset="0.015625" stop-color="#3294FF"/>
      <stop offset="1" stop-color="#005BBE"/>
    </linearGradient>
  </defs>
</svg>
