<svg width="64" height="65" viewBox="0 0 64 65" fill="none" xmlns="http://www.w3.org/2000/svg">
<path d="M61.3333 30.1832C61.3333 26.8549 58.4421 24.2118 54.92 24.2118C53.1852 24.2118 51.6081 24.8481 50.4516 25.876C46.0358 22.9393 39.9904 21.0304 33.2617 20.7856L36.2055 7.96185L45.773 9.87073C45.8781 12.1222 47.8758 13.9332 50.3465 13.9332C52.8698 13.9332 54.92 12.0243 54.92 9.67495C54.92 7.32555 52.8698 5.41667 50.3465 5.41667C48.5591 5.41667 46.9821 6.39558 46.2461 7.81501L35.5747 5.71034C35.2593 5.6614 34.9439 5.71034 34.7336 5.85718C34.4707 6.00402 34.313 6.24875 34.2605 6.54242L31.0012 20.8346C24.1673 21.0304 18.0167 22.9393 13.5484 25.925C12.3919 24.8971 10.8148 24.2608 9.08005 24.2608C5.50538 24.2608 2.66667 26.9528 2.66667 30.2322C2.66667 32.6795 4.24373 34.7352 6.45162 35.6652C6.34648 36.2525 6.29391 36.8399 6.29391 37.4762C6.29391 46.678 17.8065 54.1667 32 54.1667C46.1936 54.1667 57.7061 46.7269 57.7061 37.4762C57.7061 36.8888 57.6535 36.2525 57.5484 35.6652C59.7563 34.7352 61.3333 32.6305 61.3333 30.1832ZM17.2808 34.4415C17.2808 32.0921 19.3309 30.1832 21.8542 30.1832C24.3775 30.1832 26.4277 32.0921 26.4277 34.4415C26.4277 36.7909 24.3775 38.6998 21.8542 38.6998C19.3309 38.7487 17.2808 36.7909 17.2808 34.4415ZM42.8817 45.748C39.7276 48.6847 33.7348 48.8805 32 48.8805C30.2127 48.8805 24.2198 48.6358 21.1183 45.748C20.6452 45.3075 20.6452 44.6222 21.1183 44.1817C21.5914 43.7412 22.3274 43.7412 22.8005 44.1817C24.7981 46.0417 29.0036 46.678 32 46.678C34.9964 46.678 39.2545 46.0417 41.1995 44.1817C41.6726 43.7412 42.4086 43.7412 42.8817 44.1817C43.3023 44.6222 43.3023 45.3075 42.8817 45.748ZM42.0406 38.7487C39.5173 38.7487 37.4671 36.8399 37.4671 34.4905C37.4671 32.1411 39.5173 30.2322 42.0406 30.2322C44.5639 30.2322 46.6141 32.1411 46.6141 34.4905C46.6141 36.7909 44.5639 38.7487 42.0406 38.7487Z" fill="#1A1B1F"/>
</svg>
