<svg width="64" height="65" viewBox="0 0 64 65" fill="none" xmlns="http://www.w3.org/2000/svg">
<path fill-rule="evenodd" clip-rule="evenodd" d="M6.33273 29.4851C20.6537 23.3708 30.2011 19.3363 34.9747 17.3912C48.618 11.8353 51.4468 10.8628 53.2934 10.8339C53.6962 10.8243 54.6096 10.9302 55.199 11.3924C55.6999 11.7872 55.8374 12.3168 55.8964 12.6923C55.9553 13.0678 56.0437 13.9248 55.975 14.5892C55.2383 22.2057 52.0362 40.6739 50.4155 49.2052C49.7279 52.816 48.3724 54.0196 47.0562 54.1448C44.2078 54.4048 42.037 52.296 39.2769 50.5243C34.9551 47.7512 32.5093 46.018 28.3152 43.3026C23.4629 40.1732 26.6061 38.4497 29.376 35.638C30.1028 34.9062 42.6656 23.6982 42.9112 22.6775C42.9407 22.5523 42.9701 22.0805 42.6853 21.8301C42.4004 21.5798 41.9781 21.6665 41.6638 21.7339C41.2316 21.8301 34.3265 26.3076 20.9484 35.1566C18.9839 36.4757 17.2159 37.1209 15.6247 37.0824C13.8665 37.0438 10.4974 36.1098 7.99271 35.3106C4.91831 34.3285 2.47254 33.8085 2.67881 32.1427C2.79668 31.2761 4.01465 30.3903 6.33273 29.4851Z" fill="#1A1B1F"/>
</svg>
