<svg width="65" height="65" viewBox="0 0 65 65" fill="none" xmlns="http://www.w3.org/2000/svg">
<g clip-path="url(#clip0_2018_3420)">
<path d="M61.8568 17.8208C61.1527 15.1757 59.6089 12.9368 56.9638 12.2326C52.17 10.9507 32.4985 10.8333 32.4985 10.8333C32.4985 10.8333 12.827 10.9507 8.03321 12.2326C5.38807 12.9368 3.85335 15.1757 3.14016 17.8208C1.85821 22.6146 1.80405 32.5 1.80405 32.5C1.80405 32.5 1.85821 42.3854 3.14016 47.1792C3.84432 49.8243 5.38807 52.0632 8.03321 52.7674C12.827 54.0493 32.4985 54.1667 32.4985 54.1667C32.4985 54.1667 52.17 54.0493 56.9638 52.7674C59.6089 52.0632 61.1527 49.8243 61.8568 47.1792C63.1388 42.3854 63.1929 32.5 63.1929 32.5C63.1929 32.5 63.1388 22.6146 61.8568 17.8208Z" fill="#FF0033"/>
<path d="M61.8568 17.8208C61.1527 15.1757 59.6089 12.9368 56.9638 12.2326C52.17 10.9507 32.4985 10.8333 32.4985 10.8333C32.4985 10.8333 12.827 10.9507 8.03321 12.2326C5.38807 12.9368 3.85335 15.1757 3.14016 17.8208C1.85821 22.6146 1.80405 32.5 1.80405 32.5C1.80405 32.5 1.85821 42.3854 3.14016 47.1792C3.84432 49.8243 5.38807 52.0632 8.03321 52.7674C12.827 54.0493 32.4985 54.1667 32.4985 54.1667C32.4985 54.1667 52.17 54.0493 56.9638 52.7674C59.6089 52.0632 61.1527 49.8243 61.8568 47.1792C63.1388 42.3854 63.1929 32.5 63.1929 32.5C63.1929 32.5 63.1388 22.6146 61.8568 17.8208Z" fill="#1A1B1F"/>
<path d="M42.4288 32.5L26.1788 23.4722V41.5278" fill="white"/>
</g>
<defs>
<clipPath id="clip0_2018_3420">
<rect width="61.3889" height="43.3333" fill="white" transform="translate(1.80469 10.8333)"/>
</clipPath>
</defs>
</svg>
