<svg width="65" height="65" viewBox="0 0 65 65" fill="none" xmlns="http://www.w3.org/2000/svg">
<path fill-rule="evenodd" clip-rule="evenodd" d="M13.5417 11.5104C12.7808 11.5104 12.0837 11.9357 11.7356 12.6122C11.3874 13.2888 11.4465 14.1032 11.8888 14.7223L26.4654 35.1296L12.0795 50.0484C11.3008 50.8559 11.3242 52.1418 12.1317 52.9205C12.9393 53.6992 14.2252 53.6758 15.0039 52.8683L28.867 38.4918L38.9721 52.639C39.3534 53.1728 39.969 53.4896 40.625 53.4896H52.8125C53.5734 53.4896 54.2705 53.0644 54.6186 52.3878C54.9668 51.7113 54.9077 50.8969 54.4654 50.2777L38.7363 28.2569L51.5664 14.9516C52.3451 14.1441 52.3217 12.8582 51.5141 12.0795C50.7066 11.3008 49.4207 11.3242 48.642 12.1317L36.3348 24.8948L27.3821 12.361C27.0008 11.8272 26.3852 11.5104 25.7292 11.5104H13.5417ZM41.6703 49.4271L17.4888 15.5729H24.6839L48.8654 49.4271H41.6703Z" fill="#1A1B1F"/>
</svg>
