<svg width="65" height="65" viewBox="0 0 65 65" fill="none" xmlns="http://www.w3.org/2000/svg">
<path fill-rule="evenodd" clip-rule="evenodd" d="M32.4255 8.125C19.008 8.125 8.125 19.3115 8.125 33.103C8.125 44.1363 15.1319 53.4839 24.6732 56.8552C25.8658 57.0084 26.3131 56.2422 26.3131 55.6293C26.3131 55.0163 26.3131 53.4839 26.3131 51.3386C19.6044 52.8709 18.1135 47.9673 18.1135 47.9673C17.07 45.0557 15.43 44.2895 15.43 44.2895C13.1938 42.7571 15.5791 42.7571 15.5791 42.7571C17.9644 42.9104 19.3062 45.3622 19.3062 45.3622C21.5424 49.1932 24.9713 48.1205 26.3131 47.5076C26.4622 45.8219 27.2076 44.7493 27.8039 44.1363C22.4369 43.5233 16.7718 41.378 16.7718 31.7239C16.7718 28.9656 17.6663 26.8202 19.3062 24.9813C19.1571 24.5216 18.2626 21.9166 19.6044 18.5453C19.6044 18.5453 21.6915 17.9323 26.3131 21.1504C28.2511 20.5374 30.3383 20.3842 32.4255 20.3842C34.5126 20.3842 36.5998 20.6906 38.5378 21.1504C43.1594 17.9323 45.2466 18.5453 45.2466 18.5453C46.5883 21.9166 45.6938 24.5216 45.5447 25.1346C47.0355 26.8202 48.0791 29.1188 48.0791 31.8771C48.0791 41.5312 42.414 43.5233 37.047 44.1363C37.9415 44.9025 38.6869 46.4349 38.6869 48.7335C38.6869 52.1048 38.6869 54.7098 38.6869 55.6293C38.6869 56.2422 39.1342 57.0084 40.3268 56.8552C50.0172 53.4839 56.875 44.1363 56.875 33.103C56.7259 19.3115 45.8429 8.125 32.4255 8.125Z" fill="#1A1B1F"/>
</svg>
