<svg width="65" height="65" viewBox="0 0 65 65" fill="none" xmlns="http://www.w3.org/2000/svg">
<path fill-rule="evenodd" clip-rule="evenodd" d="M9.47914 55.5209L21.6595 52.8136C24.9943 54.5965 28.7185 55.5266 32.5 55.5209C45.2144 55.5209 55.5208 45.2145 55.5208 32.5001C55.5208 19.7857 45.2144 9.47924 32.5 9.47924C19.7856 9.47924 9.47914 19.7857 9.47914 32.5001C9.47345 36.2816 10.4035 40.0057 12.1864 43.3406L9.47914 55.5209ZM25.7855 32.5001C25.7855 34.0893 24.4972 35.3777 22.9079 35.3777C21.3187 35.3777 20.0303 34.0893 20.0303 32.5001C20.0303 30.9108 21.3187 29.6225 22.9079 29.6225C24.4972 29.6225 25.7855 30.9108 25.7855 32.5001ZM35.3776 32.5001C35.3776 34.0893 34.0892 35.3777 32.5 35.3777C30.9107 35.3777 29.6223 34.0893 29.6223 32.5001C29.6223 30.9108 30.9107 29.6225 32.5 29.6225C34.0892 29.6225 35.3776 30.9108 35.3776 32.5001ZM42.092 35.3777C43.6812 35.3777 44.9696 34.0893 44.9696 32.5001C44.9696 30.9108 43.6812 29.6225 42.092 29.6225C40.5027 29.6225 39.2144 30.9108 39.2144 32.5001C39.2144 34.0893 40.5027 35.3777 42.092 35.3777Z" fill="#1A1B1F"/>
</svg>
