<svg width="65" height="65" viewBox="0 0 65 65" fill="none" xmlns="http://www.w3.org/2000/svg">
<path d="M51.2747 16.7014C47.7757 15.2795 44.1019 14.1736 40.0781 13.5417C39.5533 14.3316 39.0284 15.4375 38.6786 16.2274C34.4798 15.5955 30.4561 15.5955 26.2574 16.2274C25.9075 15.4375 25.2077 14.3316 24.8578 13.5417C21.009 14.1736 17.1602 15.2795 13.6613 16.7014C6.66341 26.3385 4.73901 35.8177 5.61374 45.1389C10.3373 48.2986 14.8859 50.1944 19.2595 51.4583C20.3092 50.0365 21.3589 48.6146 22.2336 47.0347C20.6591 46.4028 19.0846 45.7708 17.685 44.9809C18.0349 44.6649 18.3848 44.5069 18.7347 44.191C27.6569 47.9826 37.279 47.9826 46.2012 44.191C46.5511 44.5069 46.901 44.6649 47.2509 44.9809C45.8513 45.7708 44.2768 46.4028 42.7023 47.0347C43.577 48.6146 44.4518 50.0365 45.6764 51.4583C50.225 50.1944 54.7736 48.2986 59.3222 45.1389C60.5468 34.3958 57.3978 25.0747 51.2747 16.7014ZM23.4582 39.4514C20.8341 39.4514 18.5597 37.2396 18.5597 34.3958C18.5597 31.7101 20.6591 29.3403 23.4582 29.3403C26.2574 29.3403 28.3567 31.5521 28.3567 34.3958C28.3567 37.0816 26.2574 39.4514 23.4582 39.4514ZM41.4777 39.4514C38.8535 39.4514 36.5792 37.2396 36.5792 34.3958C36.5792 31.7101 38.6786 29.3403 41.4777 29.3403C44.2768 29.3403 46.3762 31.5521 46.3762 34.3958C46.3762 37.0816 44.2768 39.4514 41.4777 39.4514Z" fill="#1A1B1F"/>
</svg>
