<svg width="65" height="65" viewBox="0 0 65 65" fill="none" xmlns="http://www.w3.org/2000/svg">
<path fill-rule="evenodd" clip-rule="evenodd" d="M55.6601 5.41667H9.49982C7.29189 5.41667 5.41669 7.1629 5.41669 9.31409V55.6833C5.41669 57.8371 6.64704 59.5833 8.85498 59.5833H55.0153C57.2258 59.5833 59.5834 57.8371 59.5834 55.6833V9.31409C59.5834 7.1629 57.8706 5.41667 55.6601 5.41667Z" fill="white"/>
<path fill-rule="evenodd" clip-rule="evenodd" d="M55.6601 5.41667H9.49982C7.29189 5.41667 5.41669 7.1629 5.41669 9.31409V55.6833C5.41669 57.8371 6.64704 59.5833 8.85498 59.5833H55.0153C57.2258 59.5833 59.5834 57.8371 59.5834 55.6833V9.31409C59.5834 7.1629 57.8706 5.41667 55.6601 5.41667ZM26.0516 26.0516H33.3435V29.7685H33.4234C34.5351 27.7643 37.8187 25.7292 41.8786 25.7292C49.6709 25.7292 51.8453 29.8665 51.8453 37.5298V51.8452H44.1072V38.9407C44.1072 35.5101 42.7375 32.5 39.5339 32.5C35.6443 32.5 33.7897 35.1335 33.7897 39.4565V51.8452H26.0516V26.0516ZM13.1548 51.8452H20.8929V26.0516H13.1548V51.8452ZM21.8601 17.0238C21.8604 17.6588 21.7356 18.2877 21.4929 18.8745C21.2501 19.4613 20.8941 19.9945 20.4452 20.4437C19.9964 20.8928 19.4634 21.2492 18.8768 21.4924C18.2902 21.7356 17.6614 21.8609 17.0264 21.861C16.3914 21.8612 15.7626 21.7363 15.1758 21.4934C14.5891 21.2505 14.0559 20.8944 13.6068 20.4455C13.1577 19.9965 12.8015 19.4635 12.5584 18.8769C12.3153 18.2902 12.1901 17.6614 12.1901 17.0264C12.19 15.7442 12.6992 14.5145 13.6056 13.6077C14.5121 12.7009 15.7417 12.1913 17.0238 12.191C18.306 12.1906 19.5358 12.6996 20.4428 13.6059C21.3497 14.5122 21.8596 15.7416 21.8601 17.0238Z" fill="#1A1B1F"/>
</svg>
