<?xml version="1.0" encoding="UTF-8"?> <svg xmlns="http://www.w3.org/2000/svg" width="70" height="70" viewBox="0 0 70 70" fill="none"> <path d="M37.728 30.8608L43 14L48.272 30.8608C48.7314 32.3303 49.8423 33.5062 51.2833 34.0484L67 39.9619L51.8587 43.76C50.0947 44.2024 48.7101 45.5678 48.243 47.3254L43 67.0526L37.757 47.3254C37.2899 45.5678 35.9053 44.2024 34.1413 43.76L19 39.9619L34.7167 34.0484C36.1577 33.5062 37.2686 32.3303 37.728 30.8608Z" stroke="#FFC467" stroke-width="2" stroke-linejoin="round"></path> <path d="M10.7969 8.90625L13 2L15.2031 8.90625C15.3905 9.49352 15.8381 9.96159 16.4165 10.1749L23 12.6028L16.6444 14.1655C15.9382 14.3391 15.3819 14.8823 15.1916 15.5842L13 23.6667L10.8084 15.5842C10.6181 14.8823 10.0618 14.3391 9.35562 14.1655L3 12.6028L9.5835 10.1749C10.1619 9.96159 10.6095 9.49352 10.7969 8.90625Z" stroke="#8FC9FF" stroke-width="2" stroke-linejoin="round"></path> </svg> 