<?xml version="1.0" encoding="UTF-8"?> <svg xmlns="http://www.w3.org/2000/svg" width="58" height="80" viewBox="0 0 58 80" fill="none"> <path d="M20.728 41.8608L26 25L31.272 41.8608C31.7314 43.3303 32.8423 44.5062 34.2833 45.0484L50 50.9619L34.8587 54.76C33.0947 55.2024 31.7101 56.5678 31.243 58.3254L26 78.0526L20.757 58.3254C20.2899 56.5678 18.9053 55.2024 17.1413 54.76L2 50.9619L17.7167 45.0484C19.1577 44.5062 20.2686 43.3303 20.728 41.8608Z" stroke="#FFC467" stroke-width="2" stroke-linejoin="round"></path> <path d="M43.7969 8.90625L46 2L48.2031 8.90625C48.3905 9.49352 48.8381 9.96159 49.4165 10.1749L56 12.6028L49.6444 14.1655C48.9382 14.3391 48.3819 14.8823 48.1916 15.5842L46 23.6667L43.8084 15.5842C43.6181 14.8823 43.0618 14.3391 42.3556 14.1655L36 12.6028L42.5835 10.1749C43.1619 9.96159 43.6095 9.49352 43.7969 8.90625Z" stroke="#0180FF" stroke-width="2" stroke-linejoin="round"></path> </svg> 