<svg width="303" height="110" viewBox="0 0 303 110" fill="none" xmlns="http://www.w3.org/2000/svg">
<rect width="302.5" height="110" fill="white"/>
<path d="M61.1953 66.2266C61.5033 66.0226 61.9297 66.1535 62.0561 66.4909L66.8451 79.2701C66.9991 79.6811 66.611 80.0899 66.1686 79.9827L48.5366 75.7091C48.0624 75.5942 47.95 74.9986 48.3522 74.7323L61.1953 66.2266Z" fill="url(#paint0_linear_8669_2331)"/>
<path d="M64.2883 63.4059C64.2662 63.3469 64.2549 63.2847 64.2549 63.222V50.3426C64.2549 49.9783 63.8886 49.7165 63.5234 49.8197L48.4148 54.0912C48.0496 54.1945 47.6834 53.9326 47.6834 53.5683V45.2448C47.6834 45.0746 47.7664 44.9142 47.9079 44.8111L67.5964 30.4574C67.8701 30.2579 68.2647 30.3341 68.436 30.6195L80.3297 50.4269C80.414 50.5672 80.4287 50.7361 80.37 50.8879L70.3564 76.7554C70.1717 77.2326 69.4649 77.229 69.2854 76.7499L64.2883 63.4059Z" fill="url(#paint1_linear_8669_2331)"/>
<path d="M42.642 31.5738C42.7371 31.4847 42.8617 31.4302 42.9944 31.4199L61.1663 30.002C61.7339 29.9577 62.0109 30.6495 61.5577 30.9794L46.0688 42.2518C45.9255 42.3561 45.739 42.3894 45.5659 42.3417L35.3664 39.529C34.9469 39.4133 34.8136 38.9078 35.1255 38.6155L42.642 31.5738Z" fill="url(#paint2_linear_8669_2331)"/>
<path d="M32.5273 42.3593C32.5708 42.0267 32.9146 41.81 33.2511 41.9031L44.0606 44.8931C44.3045 44.9605 44.4723 45.1741 44.4723 45.4169V57.5226C44.4723 57.887 44.8388 58.1489 45.2041 58.0454L60.2079 53.7929C60.5732 53.6893 60.9397 53.9512 60.9397 54.3156V62.005C60.9397 62.1836 60.8483 62.3508 60.6951 62.4527L43.8664 73.6432C43.6469 73.7891 43.3509 73.7695 43.1545 73.5961L30.1833 62.1394C30.0482 62.0201 29.9816 61.8457 30.0044 61.6712L32.5273 42.3593Z" fill="url(#paint3_linear_8669_2331)"/>
<path d="M111.422 73.5089C108.834 73.5089 106.357 73.146 103.99 72.4202C101.623 71.6628 99.7452 70.7002 98.3567 69.5326L100.487 64.7515C101.812 65.7929 103.453 66.6608 105.41 67.3551C107.367 68.0493 109.37 68.3965 111.422 68.3965C113.157 68.3965 114.562 68.2071 115.635 67.8284C116.708 67.4497 117.497 66.9448 118.002 66.3136C118.507 65.6509 118.759 64.9093 118.759 64.0888C118.759 63.0789 118.396 62.2742 117.67 61.6746C116.944 61.0434 115.998 60.5543 114.83 60.2071C113.694 59.8284 112.416 59.4813 110.996 59.1657C109.607 58.8501 108.203 58.4872 106.783 58.077C105.394 57.6351 104.116 57.0829 102.948 56.4201C101.812 55.7259 100.881 54.8107 100.156 53.6746C99.4297 52.5385 99.0667 51.0868 99.0667 49.3196C99.0667 47.5207 99.5401 45.8797 100.487 44.3965C101.465 42.8817 102.933 41.6825 104.889 40.7988C106.877 39.8837 109.386 39.4261 112.416 39.4261C114.404 39.4261 116.376 39.6785 118.333 40.1835C120.29 40.6884 121.994 41.4142 123.445 42.361L121.505 47.142C120.021 46.2584 118.491 45.6115 116.913 45.2012C115.335 44.7594 113.82 44.5385 112.369 44.5385C110.664 44.5385 109.276 44.7436 108.203 45.1539C107.161 45.5641 106.388 46.1006 105.883 46.7633C105.41 47.4261 105.173 48.1835 105.173 49.0355C105.173 50.0454 105.52 50.8659 106.215 51.4971C106.941 52.0967 107.871 52.57 109.008 52.9172C110.175 53.2643 111.469 53.6115 112.889 53.9586C114.309 54.2742 115.714 54.6371 117.102 55.0474C118.522 55.4576 119.8 55.9941 120.937 56.6568C122.104 57.3196 123.035 58.219 123.729 59.3551C124.455 60.4912 124.818 61.9271 124.818 63.6628C124.818 65.43 124.329 67.071 123.351 68.5858C122.404 70.0691 120.937 71.2683 118.948 72.1835C116.96 73.0671 114.451 73.5089 111.422 73.5089Z" fill="#0C0C0D"/>
<path d="M137.18 73.0355V45.1065H126.198V39.8994H154.316V45.1065H143.334V73.0355H137.18Z" fill="#0C0C0D"/>
<path d="M173.999 73.5089C171.411 73.5089 169.028 73.0829 166.851 72.2308C164.673 71.3787 162.78 70.1953 161.17 68.6805C159.561 67.1342 158.314 65.3353 157.431 63.2841C156.547 61.2012 156.105 58.929 156.105 56.4675C156.105 54.0059 156.547 51.7495 157.431 49.6983C158.314 47.6154 159.561 45.8166 161.17 44.3018C162.78 42.7554 164.673 41.5562 166.851 40.7042C169.028 39.8521 171.395 39.4261 173.951 39.4261C176.539 39.4261 178.906 39.8521 181.052 40.7042C183.229 41.5562 185.123 42.7554 186.732 44.3018C188.342 45.8166 189.588 47.6154 190.472 49.6983C191.356 51.7495 191.798 54.0059 191.798 56.4675C191.798 58.929 191.356 61.2012 190.472 63.2841C189.588 65.3669 188.342 67.1657 186.732 68.6805C185.123 70.1953 183.229 71.3787 181.052 72.2308C178.906 73.0829 176.555 73.5089 173.999 73.5089ZM173.951 68.1125C175.624 68.1125 177.17 67.8284 178.59 67.2604C180.011 66.6923 181.241 65.8876 182.283 64.8462C183.324 63.7732 184.129 62.5424 184.697 61.1539C185.297 59.7338 185.596 58.1716 185.596 56.4675C185.596 54.7633 185.297 53.217 184.697 51.8284C184.129 50.4083 183.324 49.1775 182.283 48.1361C181.241 47.0631 180.011 46.2426 178.59 45.6746C177.17 45.1065 175.624 44.8225 173.951 44.8225C172.279 44.8225 170.732 45.1065 169.312 45.6746C167.924 46.2426 166.693 47.0631 165.62 48.1361C164.579 49.1775 163.758 50.4083 163.158 51.8284C162.59 53.217 162.306 54.7633 162.306 56.4675C162.306 58.1401 162.59 59.6864 163.158 61.1065C163.758 62.5267 164.579 63.7732 165.62 64.8462C166.661 65.8876 167.892 66.6923 169.312 67.2604C170.732 67.8284 172.279 68.1125 173.951 68.1125Z" fill="#0C0C0D"/>
<path d="M198.32 73.0355V39.8994H203.386L224.167 65.4142H221.658V39.8994H227.764V73.0355H222.699L201.918 47.5207H204.427V73.0355H198.32Z" fill="#0C0C0D"/>
<path d="M237.969 73.3669C236.896 73.3669 235.981 73.004 235.223 72.2781C234.466 71.5207 234.087 70.574 234.087 69.4379C234.087 68.2387 234.466 67.2919 235.223 66.5977C235.981 65.8718 236.896 65.5089 237.969 65.5089C239.042 65.5089 239.957 65.8718 240.714 66.5977C241.472 67.2919 241.85 68.2387 241.85 69.4379C241.85 70.574 241.472 71.5207 240.714 72.2781C239.957 73.004 239.042 73.3669 237.969 73.3669Z" fill="#0C0C0D"/>
<path d="M248.206 73.0355V46.3373C248.206 43.6864 248.979 41.572 250.525 39.9941C252.103 38.3846 254.344 37.5799 257.247 37.5799C258.289 37.5799 259.267 37.6904 260.182 37.9113C261.129 38.1322 261.918 38.4793 262.549 38.9527L260.94 43.4024C260.498 43.0553 259.993 42.8028 259.425 42.645C258.857 42.4556 258.273 42.361 257.673 42.361C256.443 42.361 255.512 42.7081 254.88 43.4024C254.249 44.0651 253.934 45.075 253.934 46.432V49.2722L254.123 51.9231V73.0355H248.206ZM244.04 52.6805V47.9468H260.892V52.6805H244.04ZM265.058 73.0355V47.7574H270.975V73.0355H265.058ZM268.04 43.5917C266.936 43.5917 266.02 43.2446 265.295 42.5503C264.6 41.856 264.253 41.0198 264.253 40.0414C264.253 39.0316 264.6 38.1953 265.295 37.5326C266.02 36.8383 266.936 36.4911 268.04 36.4911C269.145 36.4911 270.044 36.8225 270.738 37.4852C271.464 38.1164 271.827 38.9211 271.827 39.8994C271.827 40.9409 271.48 41.8245 270.786 42.5503C270.091 43.2446 269.176 43.5917 268.04 43.5917Z" fill="#0C0C0D"/>
<defs>
<linearGradient id="paint0_linear_8669_2331" x1="69.9043" y1="39.375" x2="30.3306" y2="80.3195" gradientUnits="userSpaceOnUse">
<stop offset="0.015625" stop-color="#3294FF"/>
<stop offset="1" stop-color="#005BBE"/>
</linearGradient>
<linearGradient id="paint1_linear_8669_2331" x1="69.9043" y1="39.375" x2="30.3306" y2="80.3195" gradientUnits="userSpaceOnUse">
<stop offset="0.015625" stop-color="#3294FF"/>
<stop offset="1" stop-color="#005BBE"/>
</linearGradient>
<linearGradient id="paint2_linear_8669_2331" x1="69.9043" y1="39.375" x2="30.3306" y2="80.3195" gradientUnits="userSpaceOnUse">
<stop offset="0.015625" stop-color="#3294FF"/>
<stop offset="1" stop-color="#005BBE"/>
</linearGradient>
<linearGradient id="paint3_linear_8669_2331" x1="69.9043" y1="39.375" x2="30.3306" y2="80.3195" gradientUnits="userSpaceOnUse">
<stop offset="0.015625" stop-color="#3294FF"/>
<stop offset="1" stop-color="#005BBE"/>
</linearGradient>
</defs>
</svg>
